<svg xmlns="http://www.w3.org/2000/svg" width="152" height="152" viewBox="0 0 152 152" fill="none"><mask id="a" style="mask-type:luminance" maskUnits="userSpaceOnUse" x="0" y="0" width="152" height="152"><path d="M144.875 0H7.125A7.125 7.125 0 0 0 0 7.125v137.75A7.125 7.125 0 0 0 7.125 152h137.75a7.125 7.125 0 0 0 7.125-7.125V7.125A7.125 7.125 0 0 0 144.875 0z" fill="#fff"/></mask><g mask="url(#a)"><path d="M152 0H0v152h152V0z" fill="#1D1D1B"/><mask id="b" style="mask-type:luminance" maskUnits="userSpaceOnUse" x="22" y="14" width="130" height="70"><path d="M151.734 14.25H22.915v68.875h128.819V14.25z" fill="#fff"/></mask><g mask="url(#b)"><path d="M151.353 48.947l-13.985-4.293-20.765-21.243-22.482-2.601-24.799 3.348-20.505 14.69 35.35 36.635 7.038 5.98 6.763-2.182-.846-3.735 4.116-.19 3.28-3.707L102.825 62l28.603 12.588 18.898 7.31" fill="#fff"/><path d="M151.353 48.947l-13.985-4.293-20.765-21.243-22.482-2.601-24.799 3.348-20.505 14.69 35.35 36.635 7.038 5.98 6.763-2.182-.846-3.735 4.116-.19 3.28-3.707L102.825 62l28.603 12.588 18.898 7.31" stroke="#1D1D1B" stroke-width="1.105" stroke-miterlimit="10"/><path d="M31.816 19.629l-7.671 37.815a5.318 5.318 0 0 0 4.152 6.261l54.772 11.099a5.313 5.313 0 0 0 6.261-4.149l7.668-37.825a5.31 5.31 0 0 0-4.148-6.258L38.078 15.47a5.307 5.307 0 0 0-6.262 4.159z" fill="#fff"/><path d="M31.816 19.629l-7.671 37.815a5.318 5.318 0 0 0 4.152 6.261l54.772 11.099a5.313 5.313 0 0 0 6.261-4.149l7.668-37.825a5.31 5.31 0 0 0-4.148-6.258L38.078 15.47a5.307 5.307 0 0 0-6.262 4.159z" stroke="#1D1D1B" stroke-width=".947" stroke-miterlimit="10"/><path d="M71.771 56.76l-1.558 7.67a1.063 1.063 0 0 0 .83 1.25l11.095 2.25a1.064 1.064 0 0 0 1.25-.83l1.554-7.671a1.055 1.055 0 0 0-.826-1.25l-11.095-2.25a1.063 1.063 0 0 0-1.25.83z" fill="#1D1D1B"/><path d="M96.37 35.47L31.503 22.32l-2.096 10.335 64.87 13.152L96.37 35.47z" fill="#1D1D1B" stroke="#1D1D1B" stroke-width=".947" stroke-miterlimit="10"/><path d="M149.008 81.245l-18.235-6.333-20.358-.046-12.886-8.455-6.56-9.315-4.522-5.247-10.348-3.372-6.92-3.66-1.092-8.724 10.688.872L107.1 47.326" fill="#fff"/><path d="M149.008 81.245l-18.235-6.333-20.358-.046-12.886-8.455-6.56-9.315-4.522-5.247-10.348-3.372-6.92-3.66-1.092-8.724 10.688.872L107.1 47.326m-9.99 28.232l-6.913-8.855" stroke="#1D1D1B" stroke-width="1.105" stroke-miterlimit="10"/></g><path d="M149.625 95H2.375v54.625h147.25V95z" fill="#fff"/><path d="M19.06 111.872a3.146 3.146 0 0 1 1.635 1.197c.418.583.627 1.254.627 2.014 0 .709-.171 1.343-.514 1.9-.329.545-.817.975-1.462 1.292-.634.317-1.387.475-2.262.475h-3.457v-13.395h3.191c1.292 0 2.293.323 3.002.969.723.633 1.084 1.501 1.084 2.603 0 .659-.171 1.26-.514 1.805a2.887 2.887 0 0 1-1.33 1.14zm-3.153-4.37v3.401h1.044c.482 0 .875-.146 1.178-.437.317-.304.476-.716.476-1.235 0-.519-.159-.937-.476-1.254a1.598 1.598 0 0 0-1.178-.475h-1.045zm1.197 9.101c.582 0 1.038-.158 1.367-.475.343-.329.514-.766.514-1.311 0-.532-.171-.956-.514-1.273-.329-.329-.785-.494-1.367-.494h-1.197v3.553h1.197zm11.74-5.738v-5.51h2.28v13.395h-2.28v-5.7h-3.61v5.7h-2.28v-13.395h2.28v5.51h3.61zm10.048-5.51h2.319l-3.002 10.298c-.33 1.14-.742 1.944-1.236 2.413-.48.456-1.14.684-1.975.684h-1.596l-.21-2.28h1.635c.303 0 .532-.051.684-.152.164-.114.29-.304.38-.57l-3.42-10.393h2.432l1.976 6.688h.247l1.767-6.688zm7.927 13.395h-2.28v-11.21h-3.135v-2.185h8.55v2.185H46.82v11.21zm4.285 0v-13.395h3.173c.874 0 1.64.177 2.3.532a3.61 3.61 0 0 1 1.557 1.52c.38.659.57 1.438.57 2.337 0 .887-.19 1.666-.57 2.337a3.753 3.753 0 0 1-1.558 1.52c-.67.355-1.437.532-2.299.532h-.893v4.617h-2.28zm3.173-6.764c.608 0 1.109-.196 1.501-.589.393-.393.59-.944.59-1.653 0-.709-.197-1.26-.59-1.653-.392-.393-.893-.589-1.5-.589h-.894v4.484h.893zm9.447 6.764h-3.496v-13.395h2.223v10.26h.342l2.793-10.26h3.496v13.395H66.86v-10.26h-.342l-2.793 10.26zm10.868 0h-3.496v-13.395h2.223v10.26h.342l2.793-10.26h3.496v13.395h-2.223v-10.26h-.342l-2.793 10.26zm9.652 0h-2.28v-13.395h6.745v2.185h-4.465v11.21zm5.711 0v-13.395h3.173c.874 0 1.64.177 2.3.532a3.61 3.61 0 0 1 1.557 1.52c.38.659.57 1.438.57 2.337 0 .887-.19 1.666-.57 2.337a3.753 3.753 0 0 1-1.558 1.52c-.67.355-1.437.532-2.299.532h-.893v4.617h-2.28zm3.173-6.764c.608 0 1.109-.196 1.501-.589.393-.393.59-.944.59-1.653 0-.709-.197-1.26-.59-1.653-.392-.393-.893-.589-1.5-.589h-.894v4.484h.893zm10.264 6.954c-1.482 0-2.635-.583-3.458-1.748-.823-1.165-1.235-2.882-1.235-5.149 0-2.255.412-3.965 1.235-5.13.823-1.165 1.976-1.748 3.458-1.748 1.482 0 2.635.583 3.458 1.748.823 1.165 1.235 2.875 1.235 5.13 0 2.267-.412 3.984-1.235 5.149-.811 1.165-1.963 1.748-3.458 1.748zm0-2.128c.773 0 1.355-.374 1.748-1.121.405-.76.608-1.976.608-3.648 0-1.672-.203-2.882-.608-3.629-.393-.747-.975-1.121-1.748-1.121s-1.362.374-1.767 1.121c-.393.747-.589 1.957-.589 3.629s.196 2.888.589 3.648c.405.747.994 1.121 1.767 1.121zm11.748-4.94a3.147 3.147 0 0 1 1.634 1.197c.418.583.627 1.254.627 2.014 0 .709-.171 1.343-.513 1.9-.33.545-.817.975-1.463 1.292-.634.317-1.387.475-2.261.475h-3.458v-13.395h3.192c1.292 0 2.292.323 3.002.969.722.633 1.083 1.501 1.083 2.603 0 .659-.171 1.26-.513 1.805a2.89 2.89 0 0 1-1.33 1.14zm-3.154-4.37v3.401h1.045c.481 0 .874-.146 1.178-.437.316-.304.475-.716.475-1.235 0-.519-.159-.937-.475-1.254a1.6 1.6 0 0 0-1.178-.475h-1.045zm1.197 9.101c.582 0 1.038-.158 1.368-.475.342-.329.513-.766.513-1.311 0-.532-.171-.956-.513-1.273-.33-.329-.786-.494-1.368-.494h-1.197v3.553h1.197zm5.85 2.147v-13.395h2.28v4.617h.798c.862 0 1.628.177 2.299.532a3.723 3.723 0 0 1 1.558 1.539c.38.659.57 1.431.57 2.318 0 .899-.19 1.685-.57 2.356a3.748 3.748 0 0 1-1.558 1.52c-.658.342-1.425.513-2.299.513h-3.078zm10.83 0h-2.28v-13.395h2.28v13.395zm-7.752-2.185c.608 0 1.109-.19 1.501-.57.393-.38.589-.925.589-1.634 0-.709-.196-1.254-.589-1.634-.392-.38-.893-.57-1.501-.57h-.798v4.408h.798zm16.635 2.185h-6.878v-13.395h6.745v2.185h-4.465v3.382h3.933v2.128h-3.933v3.515h4.598v2.185zM33.078 140.125h-2.28v-11.21h-3.135v-2.185h8.55v2.185h-3.135v11.21zm4.285 0V126.73h3.173c.874 0 1.64.177 2.3.532.67.342 1.19.849 1.557 1.52.38.659.57 1.438.57 2.337 0 .887-.19 1.666-.57 2.337a3.755 3.755 0 0 1-1.558 1.52c-.671.355-1.437.532-2.299.532h-.893v4.617h-2.28zm3.173-6.764c.608 0 1.109-.196 1.501-.589.393-.393.59-.944.59-1.653 0-.709-.197-1.26-.59-1.653-.392-.393-.893-.589-1.5-.589h-.894v4.484h.893zm13.835 6.764h-2.375l-.55-2.679H47.72l-.589 2.679h-2.356l3.173-13.395h3.401l3.021 13.395zm-4.92-10.64l-1.255 5.776h2.793l-1.197-5.776h-.342zm11.864 2.755v-5.51h2.28v13.395h-2.28v-5.7h-3.61v5.7h-2.28V126.73h2.28v5.51h3.61zm9.345.893c.608.228 1.121.621 1.54 1.178.417.557.626 1.254.626 2.09 0 .785-.17 1.476-.513 2.071a3.546 3.546 0 0 1-1.368 1.368c-.57.317-1.21.475-1.919.475-1.102 0-2.02-.323-2.755-.969-.722-.646-1.228-1.583-1.52-2.812l2.261-.361c.228.722.481 1.241.76 1.558.291.304.697.456 1.216.456.481 0 .862-.171 1.14-.513.279-.342.418-.823.418-1.444 0-.583-.17-1.051-.513-1.406-.33-.355-.791-.532-1.387-.532h-1.368v-2.09h1.102c.57 0 1.02-.184 1.35-.551.328-.367.493-.823.493-1.368 0-.519-.12-.918-.36-1.197-.229-.279-.533-.418-.913-.418-.405 0-.74.139-1.007.418-.266.266-.475.697-.627 1.292l-2.128-.342c.254-1.14.716-2.008 1.387-2.603a3.44 3.44 0 0 1 2.356-.893c1.064 0 1.913.317 2.546.95.646.621.97 1.482.97 2.584 0 .684-.166 1.292-.495 1.824-.33.532-.76.944-1.292 1.235zm12.158 6.992h-2.375l-.55-2.679h-3.725l-.589 2.679h-2.356l3.173-13.395h3.401l3.021 13.395zm-4.92-10.64l-1.255 5.776h2.793l-1.197-5.776h-.342zm10.553 3.686l3.876 6.954h-2.622l-3.06-5.738h-.493v5.738h-2.28V126.73h2.28v5.453h.456l2.907-5.453h2.432l-3.496 6.441zm14.156 10.412h-2.28v-3.458h-7.22V126.73h2.28v11.21h3.325v-11.21h2.28v11.21h1.615v5.643zm4.641-3.458h-3.496V126.73h2.223v10.26h.342l2.793-10.26h3.496v13.395h-2.223v-10.26h-.342l-2.793 10.26zm10.868 0h-3.496V126.73h2.223v10.26h.342l2.793-10.26h3.496v13.395h-2.223v-10.26h-.342l-2.793 10.26z" fill="#1D1D1B"/></g></svg>