<svg xmlns="http://www.w3.org/2000/svg" width="48" height="48" viewBox="0 0 48 48" fill="none"><rect width="48" height="48" rx="10.667" fill="#FFD200"/><path d="M14.607 10.866v26.596H9.503V17.137l-5.067 1.95v-4.265l9.624-3.956h.547zm18.726 22.349v4.247h-15.64v-3.627l7.182-9.133c.692-.96 1.233-1.799 1.622-2.516.39-.729.669-1.38.839-1.95.17-.584.255-1.13.255-1.641 0-.79-.091-1.464-.274-2.023-.182-.572-.455-1.01-.82-1.313-.352-.316-.79-.474-1.312-.474-.632 0-1.155.195-1.568.583-.413.39-.723.924-.93 1.605-.194.668-.291 1.428-.291 2.278h-5.123c0-1.592.322-3.05.966-4.375.657-1.324 1.574-2.376 2.753-3.153 1.191-.79 2.619-1.185 4.284-1.185 1.628 0 2.99.304 4.083.911a5.885 5.885 0 0 1 2.498 2.607c.57 1.118.856 2.455.856 4.01 0 .888-.115 1.75-.346 2.589a13.15 13.15 0 0 1-.984 2.48 19.947 19.947 0 0 1-1.568 2.496 44.54 44.54 0 0 1-2.096 2.644l-3.464 4.94h9.078z" fill="#fff"/><path fill-rule="evenodd" clip-rule="evenodd" d="M38 23v-4h2v4h4v2h-4v4h-2v-4h-4v-2h4z" fill="#fff"/></svg>